<svg width="835" height="923" viewBox="0 0 835 923" fill="none" xmlns="http://www.w3.org/2000/svg">
<path fill-rule="evenodd" clip-rule="evenodd" d="M832.197 606.398C832.247 605.209 832.553 599.379 832.876 593.442C833.199 587.506 833.492 580.555 833.524 577.996C833.558 575.437 833.699 568.465 833.84 562.503C835.358 498.179 828.769 453.12 815.361 436.12C807.743 426.461 787.16 415.172 764.421 408.18C741.791 401.222 710.414 396.405 685.042 395.995C673.82 395.814 655.609 398.837 616.614 407.356C546.223 422.734 526.255 425.916 510.099 424.329C503.252 423.657 502.567 423.482 500.203 421.797C498.206 420.373 497.555 419.433 497.16 417.392C496.71 415.077 496.829 414.435 498.269 411.421C500.64 406.46 504.917 401.881 512.457 396.231C525.486 386.466 543.346 378.325 565.703 371.958C588.307 365.521 609.053 362.652 634.172 362.489C643.109 362.432 645.755 362.703 670.315 366.202C698.496 370.216 705.464 371.649 729.496 378.378C750.031 384.128 779.21 393.975 789.691 398.693C792.261 399.85 794.497 400.697 794.66 400.574C794.823 400.452 794.476 399.656 793.89 398.805C790.651 394.104 783.361 376.131 780.315 365.337C778.153 357.672 777.648 354.636 776.825 344.331C774.657 317.19 766.159 301.137 749.909 293.483C745.477 291.395 732.194 289.534 720.994 289.431C690.509 289.15 662.189 293.774 631.16 304.099C618.768 308.223 613.076 310.51 588.11 321.393C567.413 330.415 551.764 335.754 539.21 338.077C532.955 339.234 530.331 339.406 525.569 338.97C517.699 338.25 514.583 336.735 511.49 332.128C505.754 323.585 509.041 316.017 522.712 306.289C541.94 292.609 584.48 277.985 616.529 274.039C629.2 272.479 647.65 271.935 674.321 272.335C699.8 272.718 737.472 274.688 758.534 276.739C763.591 277.232 768.628 277.585 769.726 277.525L771.724 277.414L765.072 270.087C747.169 250.365 735.176 234.748 728.524 222.491C723.533 213.296 720.156 208.922 713.669 203.246C699.613 190.951 680.737 182.751 659.653 179.782C627.759 175.291 602.038 182.161 566.082 204.774C556.95 210.516 531.732 228.333 525.804 233.23C520.266 237.804 491.59 259.613 483.17 265.654C474.279 272.034 468.411 275.574 456.711 281.618C440.035 290.232 426.786 295.585 416.491 297.869C412.269 298.805 410.816 298.819 404.666 297.978C398.588 297.146 397.266 296.771 394.729 295.16C389.672 291.947 387.121 286.786 387.443 280.424C387.688 275.577 389.326 271.505 393.501 265.353C397.911 258.855 402.637 254.144 412.266 246.646C422.166 238.937 432.145 233.066 458.323 219.552C470.007 213.519 484.609 205.983 490.771 202.805C554.252 170.062 598.224 155.141 631.95 154.9C642.322 154.825 667.593 158.429 677.031 161.329C690.275 165.398 700.973 170.456 710.229 177.026L714.463 180.032L707.896 171.57C698.079 158.922 680.799 138.669 668.731 125.669C647.098 102.364 620.664 79.8421 604.685 71.1019C598.206 67.5578 592.61 65.6968 585.404 64.6885C579.561 63.8713 577.93 63.8895 572.702 64.8315C549.508 69.0083 521.521 85.722 488.985 114.827C468.195 133.426 448.643 154.505 431.168 177.161C396.692 221.861 353.416 249.327 340.739 234.555C335.108 227.993 338.867 209.756 350.225 188.53C368.476 154.426 397.795 123.029 430.751 102.298C451.237 89.4103 485.619 76.8795 535.121 64.2594C539.023 63.2645 541.942 62.3982 541.61 62.3341C541.277 62.2695 537.364 61.1614 532.914 59.8713C512.94 54.0811 496.519 46.6187 481.566 36.5381C470.678 29.197 461.46 23.8743 452.845 19.953C418.427 4.28626 391.101 6.23236 374.448 25.5348C373.003 27.2098 370.107 31.3282 368.011 34.6871C360.727 46.368 356.563 54.8685 337.9 96.1716C323.248 128.597 312.007 148.088 301.047 160.072C290.718 171.365 279.642 175.598 269.24 172.225C260.729 169.467 255.355 163.848 253.93 156.219C252.844 150.405 254.346 140.562 257.643 131.883C266.311 109.065 282.297 85.5759 312.91 50.6703C326.98 34.6282 350.638 10.9392 362.55 0.966479C363.872 -0.140457 363.475 -0.113587 358.532 1.24062C337.603 6.97328 310.854 11.3135 292.063 12.0252C285.459 12.2752 281.32 11.9051 257.387 8.91955C232.625 5.83121 229.745 5.58067 224.965 6.10087C208.669 7.87355 197.849 16.3127 190.286 33.1468C183.604 48.019 182.652 63.9217 186.292 99.8166C188.285 119.458 188.591 124.413 188.289 132.051C187.604 149.319 178.918 160.21 167.112 158.601C163.675 158.133 162.489 157.629 158.613 154.989C147.108 147.15 134.914 124.089 132.109 104.864C131.327 99.5064 131.367 97.8507 132.465 89.9983C133.454 82.9308 134.025 80.5233 135.317 77.9726C138.524 71.6404 152.422 47.5873 157.184 40.1252C159.863 35.9286 162.074 32.3549 162.098 32.1844C162.29 30.8331 145.681 48.931 137.477 59.012C120.635 79.7079 108.823 100.791 101.512 123.206C97.531 135.411 93.6304 172.153 93.8075 195.773C94.0262 224.93 100.395 244.258 113.546 255.673C118.045 259.578 120.225 260.731 139.513 269.415C157.548 277.534 171.341 284.359 176.471 287.703C178.348 288.927 183.091 291.969 187.01 294.463C202.377 304.244 212.631 316.148 215.673 327.738C216.57 331.156 217.137 338.246 216.6 339.322C216.423 339.676 213.933 337.918 211.029 335.388C156.156 287.589 89.9348 239.422 29.071 203.04C-49.9281 155.818 -122.946 124.641 -194.781 107.461C-211.729 103.408 -249.561 97.4108 -266.202 96.1386C-276.513 95.3509 -299.031 94.6229 -303.788 94.9238L-305.512 95.0332L-307.121 106.409C-308.005 112.666 -308.705 118.849 -308.676 120.149L-308.622 122.512L-305.758 122.529C-304.182 122.539 -299.614 122.474 -295.606 122.384C-284.694 122.139 -266.293 123.036 -249.337 124.639C-224.467 126.991 -189.602 133.83 -162.049 141.763C-97.5053 160.344 -34.1042 188.264 35.6644 228.829C47.7096 235.833 71.5318 250.306 73.5665 251.856C74.0494 252.225 72.5108 252.104 69.9572 251.573C60.1261 249.531 42.7401 249.724 30.736 252.009C3.55163 257.183 -24.1469 272.313 -43.7266 292.683C-57.9588 307.489 -67.0465 326.839 -74.6878 358.606C-77.5953 370.696 -81.3751 392.204 -80.3888 391.049C-79.9987 390.591 -76.4683 384.466 -72.5435 377.437C-52.6974 341.893 -44.4143 330.307 -31.4258 319.92C-21.3875 311.892 -11.6347 306.576 -0.346852 302.98C24.2693 295.136 46.6812 299.279 57.4889 313.672C62.4717 320.307 64.7546 330.164 62.5196 335.39C59.3798 342.734 51.7083 344.963 24.8856 346.324C-5.43537 347.864 -19.9955 350.523 -33.5181 356.989C-56.7816 368.114 -75.8116 396.934 -76.614 422.256C-76.9994 434.439 -74.5602 443.917 -66.2117 462.673C-57.0882 483.17 -54.0264 497.443 -54.0599 519.316C-54.0648 522.686 -53.9385 525.618 -53.7785 525.831C-53.618 526.044 -53.2551 524.596 -52.9706 522.614C-50.7448 507.079 -38.2346 483.156 -24.1014 467.409C-9.60628 451.258 11.7295 434.186 34.6556 420.395C49.9487 411.195 60.4501 406.734 72.1296 404.473C77.3151 403.469 78.8048 403.444 84.7163 404.262C90.4893 405.06 91.7434 405.425 93.7385 406.887C97.503 409.645 99.3888 412.157 100.881 416.404C102.153 420.023 102.214 420.93 101.521 425.89C100.61 432.418 99.0056 435.192 93.5377 439.698C87.1801 444.938 77.8817 449.471 54.2814 458.837C6.85208 477.659 -15.2891 492.081 -30.481 514.05C-42.5875 531.557 -46.9927 553.744 -42.0781 572.464C-39.558 582.066 -34.7601 591.053 -28.2522 598.364C-26.3793 600.468 -20.688 606.032 -15.6049 610.726C-4.12377 621.331 0.626707 626.753 6.06801 635.465C12.2685 645.392 24.0242 670.441 30.518 687.564C31.8169 690.988 32.2151 690.884 31.4972 687.309C30.5703 682.692 29.9664 670.324 30.2107 660.957C30.5268 648.847 34.1497 626.427 37.6729 614.781C43.3894 595.882 52.9396 576.755 64.0429 561.966C71.1092 552.554 73.9133 549.102 80.9484 541.152C94.4909 525.849 105.986 515.07 118.177 506.24C126.534 500.187 131.844 497.159 138.233 494.8C148.115 491.152 156.275 491.345 162.345 495.369C174.834 503.648 172.837 519.862 155.865 547.967C149.702 558.174 134.928 579.136 121.224 597.122C115.347 604.833 106.309 616.695 101.14 623.482C67.8417 667.19 57.9943 685.11 54.7233 707.945C51.8305 728.139 55.7044 743.963 67.6051 760.568C84.8243 784.592 117.26 804.672 168.252 822.877C174.706 825.18 180.207 827.021 180.477 826.967C180.747 826.913 179.137 822.972 176.9 818.211C166.201 795.441 156.817 766.354 152.402 742.282C148.093 718.779 147.225 699.137 149.56 677.904C151.082 664.048 153.215 654.51 156.607 646.379C162.209 632.95 175.152 612.02 185.616 599.466C193.312 590.233 198.028 585.665 206.12 579.606C212.132 575.103 214.46 573.764 218.684 572.378C223.436 570.818 224.281 570.735 228.769 571.389C232.922 571.995 234.127 572.432 236.68 574.26C245.386 580.495 248.609 590.733 246.032 603.967C243.993 614.442 240.256 622.831 224.424 652.485C206.183 686.651 199.993 700.289 194.17 719.138C187.122 741.956 183.807 779.025 186.631 803.433C188.834 822.467 194.672 837.371 205.714 852.148C213.779 862.943 219.285 866.604 232.52 869.976C239.429 871.736 244.185 872.278 269.706 874.213C287.163 875.536 301.476 878.017 311.864 881.521C327.194 886.693 357.923 902.957 381.459 918.356C384.865 920.585 387.731 922.419 387.827 922.433C387.922 922.446 384.101 917.359 379.335 911.127C332.365 849.719 304.306 781.632 302.956 725.789C302.684 714.561 303.024 707.868 304.585 693.7C307.278 669.245 313.756 645.282 321.195 632.253C326.937 622.198 335.661 614.393 342.973 612.771C355.899 609.903 368.247 620.743 372.711 638.875C374.684 646.889 375.16 657.788 374.129 671.35C373.033 685.773 370.069 701.12 363.106 728.425C355.773 757.176 354.754 762.034 353.294 775.2C349.261 811.551 355.823 844.312 371.167 864.441C383.454 880.559 405.042 892.443 436.845 900.597C453.995 904.994 481.372 908.298 502.567 908.53C513.012 908.644 513.743 908.611 513.826 908.023C513.868 907.73 511.245 905.681 507.996 903.471C475.791 881.565 447.055 844.556 434.201 808.428C425.089 782.815 417.85 743.07 417.325 715.773C417.201 709.293 417.54 704.883 418.902 695.327C420.502 684.091 420.83 682.686 423.118 677.279C428.654 664.196 435.727 657.711 446.032 656.271C451.78 655.468 459.041 657.055 462.121 659.788C468.531 665.474 471.495 674.12 472.384 689.731C473.208 704.185 472.36 718.689 468.446 757.056C467.106 770.197 465.862 784.005 465.681 787.739C464.389 814.449 473.686 844.787 489.288 864.769C496.616 874.157 504.318 880.467 513.268 884.418C519.299 887.08 529.905 888.682 535.959 887.845C545.727 886.494 550.951 884.628 570.629 875.463C593.721 864.706 606.538 861.45 628.045 860.874C639.485 860.568 650.445 861.328 659.742 863.072C667.197 864.469 671.842 865.59 686.026 869.412L689.461 870.338L691.963 866.413C708.604 840.295 716.682 830.782 744.891 804.077C767.414 782.756 773.584 775.874 778.993 766.034C781.55 761.385 781.751 760.698 782.925 752.608C784.05 744.847 784.073 743.621 783.173 738.943C780.416 724.592 772.469 713.2 756.675 700.955C743.419 690.677 726.054 680.503 688.151 660.807C638.525 635.019 623.879 624.984 619.195 613.557C613.086 598.654 634.816 594.633 669.718 604.206C700.78 612.725 732.928 629.776 753.131 648.447C767.983 662.173 785.394 685.16 796.96 706.311C798.823 709.72 800.488 712.404 800.657 712.277C801.684 711.505 794.265 664.489 790.769 649.616C788.589 640.337 782.761 623.133 780.3 618.714C771.438 602.789 742.136 582.51 708.346 568.915C690.978 561.928 677.707 558.358 659.475 555.769C636.316 552.481 619.432 552.728 580.159 556.932C550.954 560.057 541.184 560.488 534.663 558.938C522.726 556.101 516.762 547.826 519.458 537.842C523.457 523.034 541.55 507.624 563.621 500.227C581.646 494.185 599.209 492.808 623.36 495.543C672.145 501.067 718.997 519.45 765.389 551.268C785.425 565.01 805.866 584.36 826.206 608.839L831.381 615.067L831.744 611.814C831.943 610.025 832.147 607.587 832.197 606.398ZM469.291 442.331C463.11 451.705 433.378 468.477 417.634 471.472C411.003 472.733 404.485 471.971 401.127 469.541C393.907 464.316 392.038 454.513 396.852 447.112C401.781 439.536 416.01 431.533 430.181 428.368C440.619 426.035 456.81 425.245 462.903 426.769C472.188 429.093 474.425 434.544 469.291 442.331ZM459.495 351.308C458.468 352.32 454.563 354.865 450.816 356.964C431.405 367.838 422.578 373.931 406.233 387.737C391.365 400.294 382.486 406.853 375.425 410.498C368.129 414.263 364.291 415.221 359.159 414.559C355.144 414.041 354.613 413.803 351.741 411.249C347.386 407.374 345.901 403.558 346.695 398.277C347.894 390.307 353.465 383.439 366.859 373.422C371.872 369.672 379.731 364.555 384.344 362.038C409.679 348.211 442.564 337.269 453.93 338.882C458.645 339.552 460.779 340.902 461.777 343.849C462.683 346.525 461.965 348.874 459.495 351.308ZM400.846 572.808C395.234 585.904 391.301 591.96 385.679 596.164C379.304 600.931 373.7 601.559 367.285 598.229C360.423 594.664 355.736 587.841 354.892 580.187C354.528 576.879 354.668 575.533 355.733 572.149C360.08 558.329 372.682 543.19 384.552 537.528C387.662 536.045 389.113 535.736 392.033 535.938C395.099 536.149 396.033 536.486 398.104 538.131C406.03 544.426 407.117 558.172 400.846 572.808ZM305.048 482.799C300.481 496.7 290.707 511.964 275.106 529.558C265.295 540.622 256.873 547.7 250.996 549.82C243.22 552.626 237.099 550.262 233.646 543.12C230.943 537.529 230.597 532.429 232.181 521.512C233.714 510.947 235.04 506.049 239.313 495.178C248.815 471.001 264.968 450.605 278.694 445.454C281.984 444.219 282.805 444.173 288.086 444.923C293.521 445.694 294.091 445.905 297.424 448.376C303.038 452.537 306.381 458.289 307.296 465.364C307.759 468.943 306.571 478.164 305.048 482.799ZM299.585 293.799C298.19 298.276 294.709 305.108 289.906 312.796C277.582 332.521 269.664 339.926 260.462 340.335C255.906 340.537 250.237 335.725 249.767 331.256C249.472 328.448 251.363 321.79 253.541 317.974C261.166 304.613 280.21 284.223 288.945 280.068C295.31 277.04 300.236 279.924 300.771 286.991C300.93 289.102 300.782 289.955 299.585 293.799ZM233.375 429.074C232.633 430.678 229.931 434.909 227.372 438.477C215.313 455.288 205.9 462.795 199.089 461.033C191.872 459.164 189.449 450.719 192.611 438.448C196.611 422.919 202.109 412.593 209.418 406.886C218.546 399.758 226.19 400.108 232.087 407.925C236.691 414.027 237.115 420.995 233.375 429.074ZM204.977 359.484C198.073 364.614 188.523 366.537 177.46 365.025C171.335 364.188 170.678 363.973 167.365 361.709C158.636 355.744 151.613 344.634 140.553 319.296C133.73 303.661 129.802 295.669 126.038 289.754C124.689 287.637 123.608 285.75 123.635 285.562C123.69 285.17 131.708 290.845 149.049 303.55C165.202 315.384 177.625 324.999 196.208 340.049L211.656 352.56L209.962 354.799C209.031 356.031 206.787 358.139 204.977 359.484Z" fill="#333333" fill-opacity="0.05"/>
</svg>
