<svg width="669" height="757" viewBox="0 0 669 757" fill="none" xmlns="http://www.w3.org/2000/svg">
<path fill-rule="evenodd" clip-rule="evenodd" d="M10.675 212.693C10.5182 213.648 9.70095 218.32 8.85914 223.077C8.01733 227.834 7.10142 233.412 6.82455 235.473C6.54718 237.534 5.75057 243.144 5.05317 247.939C-2.46649 299.676 -1.56264 336.667 7.58905 351.691C12.7888 360.228 28.2861 371.349 45.944 379.214C63.5163 387.042 88.3543 393.998 108.78 396.813C117.815 398.057 132.8 397.401 165.087 394.346C223.372 388.832 239.79 388.219 252.667 391.08C258.123 392.292 258.659 392.501 260.401 394.092C261.873 395.436 262.305 396.258 262.425 397.943C262.561 399.854 262.402 400.36 260.945 402.65C258.547 406.42 254.649 409.695 248.014 413.515C236.549 420.116 221.346 424.934 202.689 427.882C183.826 430.862 166.811 431.145 146.533 428.818C139.319 427.989 137.211 427.512 117.743 422.286C95.4046 416.289 89.9241 414.451 71.1981 406.672C55.1968 400.024 32.6242 389.225 24.6318 384.394C22.6716 383.209 20.951 382.307 20.8077 382.39C20.6644 382.472 20.8662 383.149 21.256 383.892C23.4085 388.001 27.5295 403.212 28.9296 412.217C29.9235 418.611 30.0336 421.109 29.6887 429.502C28.7811 451.607 34.0648 465.388 46.4234 473.152C49.7942 475.27 60.3259 478.072 69.3502 479.251C93.9123 482.461 117.209 481.503 143.248 476.211C153.647 474.098 158.462 472.811 179.666 466.476C197.244 461.224 210.389 458.449 220.743 457.804C225.901 457.483 228.035 457.601 231.833 458.419C238.111 459.77 240.476 461.297 242.52 465.316C246.311 472.769 242.918 478.551 230.939 485.06C214.091 494.213 178.345 501.845 152.108 501.891C141.734 501.909 126.799 500.542 105.325 497.609C84.81 494.806 54.6152 489.53 37.8275 485.814C33.796 484.922 29.7677 484.143 28.876 484.085L27.2543 483.978L31.9024 490.54C44.4129 508.2 52.5581 521.971 56.7247 532.509C59.8503 540.414 62.1457 544.273 66.8234 549.486C76.9577 560.78 91.381 569.242 108.097 573.7C133.384 580.444 154.804 577.42 186.02 562.7C193.948 558.961 216.033 547.058 221.294 543.689C226.209 540.541 251.474 525.756 258.857 521.707C266.653 517.431 271.733 515.15 281.762 511.42C296.057 506.104 307.267 503.083 315.795 502.248C319.292 501.906 320.466 502.037 325.344 503.318C330.166 504.584 331.196 505.015 333.084 506.564C336.849 509.65 338.401 514.063 337.519 519.163C336.846 523.049 335.127 526.173 331.157 530.727C326.963 535.536 322.691 538.874 314.19 543.979C305.45 549.229 296.826 552.987 274.387 561.327C264.372 565.049 251.856 569.698 246.575 571.659C192.165 591.857 155.235 599.589 128.007 596.482C119.634 595.527 99.6026 590.146 92.2738 586.884C81.9884 582.305 73.8546 577.179 67.0318 570.973L63.9103 568.134L68.3795 575.602C75.06 586.765 87.016 604.793 95.478 616.461C110.647 637.376 129.765 658.13 141.799 666.744C146.678 670.237 151.009 672.286 156.723 673.804C161.356 675.035 162.674 675.18 166.983 674.932C186.101 673.833 210.311 663.091 239.404 642.798C257.994 629.832 275.829 614.742 292.142 598.177C324.326 565.496 361.922 547.577 370.702 560.733C374.602 566.577 369.784 580.92 358.545 596.929C340.485 622.653 313.763 645.108 285.151 658.605C267.365 666.995 238.405 673.738 197.24 679.072C193.996 679.493 191.556 679.906 191.818 679.99C192.08 680.075 195.128 681.352 198.591 682.828C214.136 689.453 226.651 697.08 237.726 706.675C245.79 713.662 252.705 718.857 259.27 722.864C285.499 738.87 307.731 739.974 323.053 726.035C324.383 724.825 327.122 721.786 329.141 719.282C336.16 710.573 340.35 704.124 359.447 672.634C374.439 647.913 385.414 633.292 395.428 624.698C404.865 616.599 414.213 614.27 422.274 618.008C428.869 621.066 432.654 626.124 433.056 632.417C433.363 637.214 431.188 645.006 427.679 651.684C418.454 669.241 403.261 686.623 375.151 711.783C362.232 723.346 340.83 740.138 330.245 747.016C329.071 747.78 329.394 747.797 333.513 747.189C350.956 744.613 372.957 743.73 388.185 744.995C393.536 745.44 396.838 746.144 415.85 750.894C435.522 755.809 437.821 756.293 441.727 756.341C455.045 756.506 464.599 750.758 472.348 737.92C479.193 726.577 481.517 713.843 482.094 684.533C482.409 668.495 482.647 664.468 483.639 658.337C485.882 644.475 493.954 636.54 503.319 638.993C506.046 639.707 506.953 640.23 509.821 642.739C518.334 650.188 525.913 669.983 526.294 685.765C526.4 690.163 526.206 691.495 524.551 697.721C523.062 703.325 522.366 705.211 521.074 707.142C517.867 711.936 504.303 729.978 499.731 735.531C497.16 738.654 495.026 741.32 494.99 741.455C494.703 742.526 509.872 729.554 517.476 722.225C533.086 707.18 544.678 691.33 552.769 673.965C557.175 664.509 563.918 635.255 566.087 616.185C568.764 592.644 565.518 576.43 556.028 565.936C552.781 562.346 551.136 561.202 536.427 552.31C522.674 543.995 512.217 537.14 508.406 533.941C507.011 532.77 503.484 529.852 500.567 527.457C489.129 518.063 482.023 507.458 480.704 497.811C480.315 494.966 480.551 489.192 481.089 488.376C481.267 488.107 483.103 489.77 485.198 492.094C524.781 536.022 573.483 581.355 619.016 616.659C678.116 662.482 733.963 694.777 790.225 715.665C803.499 720.593 833.428 729.134 846.727 731.789C854.967 733.433 873.059 736.225 876.925 736.447L878.327 736.528L880.738 727.51C882.064 722.549 883.233 717.63 883.337 716.579L883.525 714.667L881.216 714.373C879.947 714.211 876.255 713.816 873.014 713.497C864.188 712.626 849.433 710.102 835.913 707.149C816.082 702.818 788.628 693.888 767.18 684.793C716.936 663.488 668.528 634.761 616.221 595.212C607.191 588.383 589.392 574.377 587.903 572.928C587.549 572.583 588.778 572.831 590.786 573.51C598.516 576.119 612.559 577.665 622.466 576.997C644.9 575.484 668.723 565.991 686.51 551.477C699.439 540.926 708.664 526.207 717.936 501.331C721.465 491.864 726.619 474.885 725.71 475.721C725.351 476.051 721.904 480.647 718.05 485.932C698.563 512.66 690.747 521.195 679.254 528.302C670.371 533.796 661.984 537.129 652.527 538.925C631.903 542.843 614.231 537.307 606.922 524.64C603.552 518.8 602.675 510.625 604.989 506.628C608.241 501.012 614.647 499.965 636.416 501.492C661.024 503.218 673.029 502.499 684.57 498.606C704.423 491.91 722.594 470.525 725.72 450.178C727.223 440.389 726.184 432.505 721.285 416.559C715.932 399.133 714.859 387.32 717.027 369.68C717.361 366.962 717.546 364.585 717.438 364.398C717.329 364.21 716.895 365.342 716.471 366.913C713.156 379.227 700.723 397.299 687.782 408.617C674.509 420.227 655.628 431.909 635.785 440.789C622.549 446.713 613.642 449.284 603.999 449.964C599.718 450.266 598.514 450.141 593.826 448.903C589.247 447.693 588.272 447.277 586.805 445.902C584.039 443.309 582.764 441.098 581.976 437.526C581.304 434.483 581.343 433.745 582.388 429.812C583.762 424.635 585.327 422.555 590.179 419.455C595.82 415.851 603.764 413.104 623.717 407.86C663.817 397.32 683.088 387.854 697.493 371.62C708.972 358.683 714.696 341.218 712.565 325.637C711.472 317.645 708.481 309.926 703.947 303.392C702.642 301.512 698.596 296.467 694.956 292.183C686.733 282.505 683.431 277.666 679.895 270.107C675.865 261.492 668.835 240.136 665.272 225.689C664.56 222.8 664.228 222.845 664.458 225.799C664.753 229.614 664.03 239.649 662.916 247.181C661.476 256.918 656.359 274.648 652.377 283.698C645.916 298.382 636.341 312.876 625.937 323.718C619.316 330.618 616.716 333.129 610.264 338.852C597.842 349.871 587.515 357.441 576.818 363.369C569.484 367.434 564.904 369.357 559.519 370.634C551.191 372.609 544.628 371.655 540.126 367.816C530.862 359.915 534.061 347.032 550.502 326.022C556.472 318.393 570.44 302.93 583.255 289.764C588.75 284.119 597.201 275.435 602.035 270.467C633.172 238.47 642.869 224.979 647.743 206.88C652.053 190.875 650.477 177.731 642.503 163.172C630.965 142.109 606.767 122.737 567.417 103.062C562.437 100.572 558.18 98.5485 557.957 98.5659C557.733 98.5833 558.646 101.919 559.985 105.979C566.386 125.393 571.109 149.774 572.313 169.623C573.489 189.003 572.266 204.931 568.305 221.83C565.721 232.857 563.067 240.342 559.535 246.569C553.702 256.852 541.213 272.468 531.544 281.571C524.433 288.265 520.181 291.488 513.061 295.583C507.771 298.627 505.762 299.479 502.219 300.184C498.234 300.977 497.544 300.961 493.987 299.994C490.697 299.099 489.768 298.629 487.887 296.904C481.475 291.022 479.877 282.449 483.251 272.027C485.922 263.777 489.757 257.375 505.43 235.006C523.488 209.232 529.816 198.837 536.357 184.203C544.276 166.487 550.578 136.911 550.689 116.947C550.775 101.378 547.524 88.7841 540.064 75.7838C534.615 66.2873 530.532 62.7951 520.187 58.7802C514.786 56.6839 511.003 55.7816 490.607 51.7228C476.655 48.9467 465.353 45.5446 457.316 41.7011C445.457 36.0294 422.262 19.9027 404.785 5.17744C402.255 3.04673 400.123 1.28644 400.047 1.26599C399.971 1.24567 402.555 5.72308 405.79 11.2165C437.667 65.3468 453.636 123.014 449.259 168.191C448.379 177.274 447.45 182.639 444.805 193.914C440.238 213.377 432.667 232.072 425.391 241.853C419.776 249.402 411.975 254.844 405.918 255.437C395.211 256.485 386.312 246.533 384.486 231.469C383.679 224.813 384.362 215.974 386.521 205.136C388.816 193.609 392.71 181.52 400.999 160.177C409.728 137.703 411.025 133.885 413.492 123.408C420.302 94.4806 418.216 67.4129 407.809 49.6744C399.476 35.4702 383.226 23.7712 358.371 14.0815C344.967 8.85643 323.208 3.51164 306.134 1.25001C297.72 0.135761 297.127 0.0908489 297.003 0.55642C296.94 0.789235 298.856 2.6986 301.26 4.79894C325.093 25.6209 344.65 58.2859 351.482 88.6861C356.325 110.238 358.274 143.006 356.026 165.076C355.492 170.314 354.786 173.839 352.753 181.414C350.362 190.32 349.96 191.421 347.585 195.558C341.839 205.57 335.499 210.108 327.046 210.261C322.331 210.346 316.63 208.356 314.412 205.85C309.799 200.636 308.255 193.372 309.065 180.692C309.815 168.953 311.919 157.337 318.831 126.772C321.198 116.303 323.553 105.287 324.064 102.293C327.721 80.8747 323.191 55.4935 312.562 37.8478C307.57 29.5587 301.975 23.7144 295.142 19.6517C290.538 16.9142 282.14 14.5837 277.175 14.6664C269.163 14.8 264.767 15.7939 247.997 21.261C228.318 27.6771 217.661 29.0497 200.256 27.409C190.998 26.5362 182.233 24.8506 174.904 22.5339C169.027 20.6766 165.39 19.3179 154.323 14.8466L151.643 13.7636L149.241 16.6849C133.261 36.1235 125.815 43.0062 100.447 61.7859C80.1918 76.78 74.5418 81.7272 69.2152 89.1344C66.6975 92.6346 66.4683 93.169 64.7299 99.5795C63.0624 105.729 62.9243 106.716 63.1919 110.578C64.0115 122.423 69.3064 132.39 80.8476 143.813C90.5346 153.401 103.546 163.307 132.192 182.905C169.697 208.563 180.528 218.091 183.188 227.767C186.657 240.385 168.736 241.503 141.52 230.365C117.298 220.452 93.0358 203.552 78.567 186.515C67.9308 173.989 56.1361 153.743 48.8774 135.55C47.7079 132.618 46.6282 130.29 46.4789 130.376C45.5749 130.898 46.9576 169.548 48.3215 181.887C49.1725 189.586 52.1896 204.033 53.7414 207.839C59.3314 221.551 80.9826 240.777 106.907 255.05C120.233 262.386 130.589 266.565 145.041 270.437C163.4 275.357 177.043 276.81 209.134 277.263C232.997 277.6 240.919 278.209 246.028 280.097C255.378 283.554 259.379 290.813 256.227 298.602C251.552 310.155 235.45 320.814 216.923 324.621C201.793 327.73 187.491 327.122 168.278 322.552C129.467 313.321 93.4742 293.907 59.1681 263.701C44.3512 250.655 29.7574 233.047 15.7467 211.311L12.1816 205.78L11.5707 208.369C11.2348 209.793 10.8314 211.739 10.675 212.693ZM287.345 380.554C293.248 373.598 318.872 362.979 331.865 362.104C337.337 361.736 342.52 362.988 344.991 365.277C350.304 370.199 350.851 378.289 346.244 383.787C341.527 389.416 329.266 394.479 317.525 395.645C308.878 396.505 295.74 395.558 290.975 393.732C283.713 390.949 282.442 386.333 287.345 380.554ZM286.337 454.934C287.265 454.218 290.664 452.548 293.892 451.221C310.614 444.35 318.33 440.299 332.866 430.763C346.087 422.089 353.891 417.667 359.944 415.419C366.198 413.096 369.387 412.698 373.462 413.735C376.65 414.546 377.055 414.789 379.121 417.131C382.255 420.683 383.079 423.906 381.922 428.088C380.175 434.4 375.009 439.395 363.224 446.164C358.814 448.697 351.974 452.056 348.006 453.634C326.217 462.308 298.621 467.916 289.611 465.501C285.872 464.5 284.284 463.202 283.767 460.727C283.298 458.48 284.107 456.656 286.337 454.934ZM355.325 282.007C361.134 271.993 364.899 267.493 369.846 264.652C375.454 261.431 380.036 261.473 384.884 264.787C390.071 268.334 393.184 274.297 393.115 280.553C393.085 283.257 392.84 284.329 391.65 286.955C386.791 297.676 375.144 308.654 365.016 312.06C362.362 312.952 361.161 313.059 358.825 312.61C356.373 312.14 355.652 311.776 354.143 310.247C348.365 304.394 348.834 293.2 355.325 282.007ZM423.788 363.987C428.833 353.221 438.211 341.866 452.517 329.201C461.514 321.236 469 316.352 473.948 315.217C480.495 313.715 485.2 316.22 487.287 322.319C488.92 327.094 488.7 331.241 486.354 339.892C484.083 348.264 482.534 352.086 478.023 360.436C467.993 379.007 452.967 393.879 441.39 396.69C438.616 397.364 437.949 397.321 433.763 396.199C429.455 395.045 429.016 394.819 426.568 392.5C422.448 388.594 420.314 383.627 420.268 377.831C420.245 374.898 422.107 367.577 423.788 363.987ZM409.696 516.974C411.259 513.499 414.736 508.329 419.362 502.598C431.234 487.893 438.346 482.695 445.809 483.266C449.503 483.549 453.605 487.985 453.546 491.636C453.51 493.93 451.333 499.116 449.203 501.98C441.744 512.011 424.387 526.594 416.935 529.091C411.504 530.91 407.813 528.102 408.073 522.349C408.151 520.631 408.354 519.957 409.696 516.974ZM476.343 414.338C477.099 413.117 479.692 409.968 482.105 407.341C493.478 394.961 501.805 389.827 507.127 391.915C512.765 394.129 513.893 401.178 510.142 410.767C505.395 422.902 499.95 430.692 493.496 434.581C485.435 439.436 479.303 438.406 475.312 431.523C472.196 426.151 472.535 420.489 476.343 414.338ZM492.438 473.251C498.51 469.789 506.401 469.172 515.176 471.474C520.035 472.749 520.544 472.987 522.994 475.137C529.452 480.803 534.03 490.452 540.47 511.973C544.444 525.252 546.83 532.083 549.288 537.223C550.168 539.063 550.855 540.691 550.815 540.839C550.732 541.15 544.821 535.788 532.076 523.843C520.205 512.716 511.126 503.744 497.609 489.786L486.373 478.182L487.958 476.541C488.83 475.639 490.846 474.159 492.438 473.251Z" fill="#333333" fill-opacity="0.05"/>
</svg>
