<svg width="145" height="110" viewBox="0 0 145 110" fill="none" xmlns="http://www.w3.org/2000/svg">
<path d="M64.577 100.096C47.2378 90.9441 36.349 80.8221 31.8958 69.7297C28.286 60.7128 29.4695 53.2729 41.172 52.0869C55.4192 50.6177 66.4559 39.5927 66.4559 26.2224C66.4559 14.2674 57.6235 4.19928 45.5808 1.15323C20.3265 -5.16798 0.427845 15.5209 0.0136005 38.0966C-0.578177 69.5544 18.2257 93.2084 54.6498 109.14L64.577 100.096Z" fill="#36F0A2" fill-opacity="0.2"/>
<path d="M143.121 100.096C125.782 90.9441 114.893 80.8221 110.44 69.7297C106.83 60.7128 108.014 53.2864 119.716 52.0869C133.963 50.6177 145 39.5927 145 26.2224C145 14.2674 136.168 4.19928 124.14 1.15323C98.8855 -5.16798 78.9868 15.5209 78.5578 38.0966C77.9808 69.5544 96.7847 93.2084 133.194 109.14L143.121 100.096Z" fill="#36F0A2" fill-opacity="0.2"/>
</svg>
