<?xml version="1.0" standalone="no"?>
<!DOCTYPE svg PUBLIC "-//W3C//DTD SVG 20010904//EN"
 "http://www.w3.org/TR/2001/REC-SVG-20010904/DTD/svg10.dtd">
<svg version="1.0" xmlns="http://www.w3.org/2000/svg"
 width="419.000000pt" height="419.000000pt" viewBox="0 0 419.000000 419.000000"
 preserveAspectRatio="xMidYMid meet">
<metadata>
Created by potrace 1.11, written by Peter Selinger 2001-2013
</metadata>
<g transform="translate(0.000000,419.000000) scale(0.100000,-0.100000)"
fill="#000000" stroke="none">
<path d="M832 3949 c-40 -37 -36 -45 51 -90 33 -17 67 -38 75 -45 7 -8 17 -14
22 -14 13 0 90 -53 90 -62 0 -4 7 -8 15 -8 9 0 18 -7 21 -15 3 -8 14 -17 25
-20 10 -4 25 -12 31 -18 7 -7 34 -30 60 -51 26 -21 46 -42 45 -48 -1 -6 7 -12
17 -14 21 -3 73 -54 68 -67 -1 -5 2 -6 7 -3 12 8 33 -18 23 -29 -4 -5 -2 -5 4
-2 13 7 37 -16 29 -26 -3 -4 -2 -5 1 -2 9 6 80 -66 77 -77 -2 -4 5 -8 15 -8
14 0 15 -2 2 -10 -13 -8 -13 -10 2 -10 21 0 70 -58 62 -72 -4 -6 -3 -9 2 -6 5
3 15 0 22 -8 7 -8 11 -14 9 -14 -3 0 11 -16 30 -36 19 -21 32 -43 29 -51 -3
-8 -2 -12 3 -9 10 6 38 -23 43 -44 2 -8 11 -21 21 -28 9 -7 17 -20 17 -28 0
-8 3 -14 8 -14 4 0 13 -9 20 -20 8 -13 8 -20 2 -20 -13 0 -110 99 -110 113 0
21 -141 177 -160 177 -6 0 -10 3 -10 8 0 14 -94 69 -148 87 -70 23 -162 17
-222 -13 -25 -13 -65 -45 -90 -72 -61 -64 -106 -85 -225 -105 -126 -20 -158
-30 -196 -62 -37 -31 -58 -71 -65 -123 -7 -49 5 -51 74 -16 26 13 67 30 92 37
25 7 50 16 56 21 6 5 31 10 55 13 24 3 59 7 77 9 20 3 32 0 32 -7 0 -8 4 -7 9
2 5 8 18 12 30 8 12 -3 21 -1 21 3 0 5 12 5 28 1 15 -4 39 -6 55 -5 15 2 25
-1 22 -6 -3 -5 5 -10 17 -12 13 -2 22 -9 20 -16 -1 -8 2 -11 7 -8 14 9 41 -22
34 -40 -3 -8 -12 -13 -20 -10 -8 3 -11 1 -8 -4 7 -12 -1 -12 -215 -15 -151 -2
-200 -5 -270 -20 -14 -3 -43 -8 -65 -11 -60 -9 -101 -32 -160 -89 -38 -37 -57
-64 -65 -95 -12 -46 -15 -154 -5 -171 4 -5 10 -30 15 -57 12 -68 16 -84 34
-126 9 -21 13 -43 9 -49 -3 -6 -1 -7 5 -3 13 8 45 -60 36 -75 -3 -5 0 -8 8 -7
7 2 12 -5 12 -14 -1 -10 2 -15 7 -12 5 3 9 -1 9 -9 0 -10 7 -13 20 -10 11 3
20 10 20 15 0 5 4 6 10 3 5 -3 7 0 5 7 -8 20 57 143 75 143 8 0 21 4 28 9 7 4
20 2 29 -6 10 -8 14 -8 10 -1 -5 7 7 18 32 29 22 10 38 21 35 26 -3 4 2 11 10
14 9 3 16 13 16 21 0 8 4 12 9 9 5 -4 7 4 3 16 -3 11 -1 19 4 16 5 -4 9 10 8
30 -1 34 19 72 36 72 11 0 18 -47 9 -61 -4 -7 -5 -17 -2 -23 4 -5 8 -29 10
-53 3 -39 0 -44 -29 -59 -18 -9 -38 -23 -46 -30 -7 -8 -23 -19 -34 -25 -55
-29 -161 -137 -190 -192 -32 -62 -33 -148 -3 -211 13 -27 22 -54 19 -58 -3 -5
-1 -7 4 -6 5 2 27 -23 48 -54 22 -31 56 -75 77 -97 21 -23 35 -41 32 -41 -3 0
8 -13 24 -29 18 -18 26 -32 20 -38 -6 -6 -1 -9 13 -9 14 1 22 -4 20 -12 -1 -8
2 -11 7 -7 6 3 16 -3 22 -14 10 -15 16 -17 31 -8 10 7 18 22 18 35 0 13 4 21
8 18 5 -3 9 7 9 22 0 39 44 153 56 145 6 -3 7 -1 3 6 -10 15 54 152 67 144 6
-3 7 -1 3 5 -10 16 23 62 39 56 7 -3 16 -1 20 5 3 7 0 8 -9 5 -22 -8 -20 1 6
31 11 13 26 22 31 18 6 -3 7 -1 3 6 -5 7 3 22 19 37 14 13 24 24 21 24 -3 0 7
12 21 28 14 15 30 26 35 24 5 -1 7 1 4 6 -3 5 13 29 36 53 23 24 37 38 33 30
-5 -10 -4 -12 4 -7 6 4 9 11 6 16 -3 5 6 20 20 34 27 27 41 34 29 14 -5 -7 -3
-8 5 -4 7 5 10 11 7 14 -10 9 26 42 46 42 10 0 18 4 18 9 0 5 9 11 19 14 28 7
49 -22 45 -61 -7 -62 -163 -274 -337 -457 -125 -133 -149 -164 -196 -255 -42
-81 -43 -83 -37 -159 3 -46 14 -93 26 -118 11 -23 20 -47 20 -53 0 -5 4 -10
10 -10 10 0 55 -77 55 -95 0 -5 10 -19 22 -31 13 -13 21 -31 18 -43 -2 -12 0
-19 5 -16 13 8 43 -42 34 -57 -4 -7 -4 -10 1 -6 4 4 14 3 22 -3 16 -14 18 -33
1 -23 -7 4 -8 3 -4 -4 4 -6 13 -9 21 -5 8 3 15 1 15 -5 0 -15 62 -48 83 -44
12 2 17 13 17 38 0 19 0 35 1 37 9 32 25 145 21 151 -3 5 3 6 13 2 14 -5 15
-3 7 6 -10 13 -5 68 7 68 3 0 7 13 8 28 1 15 7 41 14 57 7 17 13 32 14 35 1 3
6 20 10 38 4 17 10 32 14 32 3 0 7 12 8 28 1 15 10 45 19 67 10 22 17 43 16
48 -1 4 3 7 9 7 5 0 7 4 4 10 -3 5 -1 10 4 10 6 0 11 7 11 16 0 8 5 25 12 37
7 12 13 28 14 36 2 8 8 17 14 21 7 4 10 10 8 13 -1 4 5 16 15 27 9 11 17 26
17 34 0 7 8 20 17 27 14 12 16 12 8 0 -5 -10 -4 -12 4 -7 6 4 9 11 6 15 -2 5
4 19 15 31 11 13 20 27 20 33 0 5 7 6 16 3 11 -4 15 -2 11 7 -3 8 4 22 15 31
19 17 20 17 15 -17 -2 -19 -12 -43 -21 -53 -38 -42 -76 -98 -93 -135 -9 -21
-21 -39 -26 -39 -4 0 -6 -4 -2 -9 3 -5 -2 -16 -10 -25 -9 -8 -15 -18 -15 -21
1 -15 -67 -144 -74 -138 -4 4 -4 0 -1 -10 4 -9 -4 -54 -18 -99 -14 -46 -28
-101 -32 -123 -3 -22 -10 -65 -15 -97 -6 -31 -10 -60 -9 -65 1 -4 0 -12 -1
-18 -4 -20 -2 -120 3 -135 3 -8 10 -34 16 -57 6 -23 19 -49 27 -58 9 -9 14
-18 11 -21 -3 -4 10 -22 29 -41 19 -19 31 -39 28 -45 -4 -7 -2 -8 5 -4 7 4 26
-3 44 -16 75 -56 217 -118 253 -111 10 2 24 5 31 5 7 1 17 13 23 28 10 24 9
60 -6 160 -3 19 -7 60 -9 90 -3 30 -5 55 -5 55 -2 0 -2 81 -1 153 1 40 4 51
14 46 9 -6 9 -5 0 8 -7 8 -11 17 -9 19 9 9 15 78 17 177 1 56 4 102 8 102 3 0
7 15 8 34 4 51 21 89 35 80 9 -5 9 -2 -1 9 -11 13 -11 17 -1 17 8 0 10 3 7 7
-4 3 0 17 8 30 9 13 12 23 8 23 -5 0 -3 4 2 8 6 4 18 23 29 42 10 19 26 41 34
48 9 6 12 12 7 12 -5 0 1 9 14 21 19 18 24 19 39 7 15 -12 16 -11 3 5 -12 15
-12 19 5 32 21 16 71 16 66 0 -2 -5 -10 -9 -18 -9 -11 1 -12 -2 -4 -10 5 -7 7
-16 3 -19 -3 -4 3 -7 15 -7 18 0 20 -5 16 -35 -2 -19 -25 -94 -50 -167 -52
-153 -101 -310 -108 -352 -5 -30 -22 -111 -32 -156 -3 -14 -8 -41 -11 -60 -5
-34 -28 -154 -38 -196 -14 -60 -21 -145 -12 -151 5 -3 3 -9 -4 -14 -11 -7 -11
-9 -1 -9 7 0 10 -5 7 -10 -3 -6 -1 -10 5 -10 6 0 9 -4 6 -9 -3 -4 1 -16 8 -27
8 -10 11 -25 8 -33 -3 -9 -1 -12 6 -7 7 4 12 2 12 -5 0 -6 9 -20 21 -30 11
-10 18 -23 14 -28 -3 -6 0 -8 8 -5 8 3 25 -8 40 -25 13 -16 28 -27 31 -24 3 4
6 2 6 -4 0 -6 14 -16 30 -23 17 -7 30 -19 30 -27 0 -13 3 -13 15 -3 14 11 19
7 16 -12 0 -4 6 -5 13 -2 8 3 25 0 38 -7 13 -7 26 -12 31 -11 4 1 7 -2 7 -6 0
-4 16 -9 37 -10 20 -2 41 -6 47 -9 22 -14 46 -10 46 8 0 10 -14 52 -31 95 -17
42 -33 89 -35 103 -3 14 -7 32 -10 40 -24 69 -24 337 1 566 1 17 3 49 4 73 0
24 4 41 9 39 4 -3 7 8 8 24 1 36 53 107 65 88 4 -7 5 -17 3 -21 -3 -4 0 -8 5
-8 22 0 28 -78 16 -225 -5 -49 -9 -108 -10 -130 -2 -22 -4 -40 -5 -40 -5 0 -2
-252 4 -325 13 -169 15 -186 25 -219 6 -19 8 -38 4 -44 -3 -6 -1 -7 5 -3 7 4
12 1 12 -9 0 -9 7 -23 15 -32 8 -8 13 -19 10 -24 -4 -5 1 -9 10 -9 12 0 15 -6
10 -22 -5 -18 -4 -20 4 -8 10 13 15 8 12 -12 0 -4 5 -5 12 -2 7 2 25 -6 40
-20 15 -14 27 -22 27 -19 0 3 6 0 13 -6 8 -6 17 -8 20 -4 4 3 7 2 7 -4 0 -5
10 -9 23 -8 12 1 28 -3 36 -9 11 -8 13 -8 7 2 -4 6 -3 12 2 12 6 0 14 13 20
28 11 31 14 21 -86 264 -33 81 -63 166 -68 190 -9 55 -13 150 -5 163 3 5 6 23
7 38 3 39 32 80 50 73 9 -3 12 -1 9 4 -10 15 18 12 43 -6 12 -8 20 -20 16 -25
-3 -5 -2 -9 3 -8 20 4 24 -2 12 -18 -8 -10 -9 -14 -2 -10 14 9 27 -33 44 -133
5 -36 14 -75 19 -87 7 -17 6 -23 -3 -23 -9 0 -9 -2 1 -8 7 -5 14 -31 15 -60 1
-29 5 -52 8 -52 3 0 6 -15 7 -32 2 -55 8 -91 21 -130 7 -21 10 -42 6 -48 -3
-5 -1 -10 5 -10 7 0 9 -7 6 -16 -3 -8 -2 -12 3 -9 6 3 13 -1 18 -8 15 -27 119
-44 140 -24 3 4 13 1 21 -6 9 -6 13 -7 9 -1 -4 7 5 11 23 11 16 0 27 -3 25 -7
-2 -4 6 -6 18 -5 27 3 59 -13 52 -25 -3 -5 0 -12 7 -16 7 -4 10 -4 6 1 -4 4 0
21 8 37 9 17 11 27 5 24 -7 -4 -8 -1 -5 8 3 9 10 13 15 10 5 -3 6 2 3 10 -3 9
-1 16 6 16 6 0 8 5 4 11 -3 6 -1 15 7 19 7 5 13 17 14 28 2 23 65 103 76 96 5
-3 6 1 3 9 -3 9 4 22 18 31 12 9 19 16 14 16 -5 0 3 11 17 24 14 13 23 27 20
30 -4 3 -1 6 6 6 7 0 9 4 6 10 -3 5 -1 10 5 10 6 0 9 4 6 9 -3 5 0 13 7 19 19
16 13 125 -11 223 -14 54 -62 145 -106 197 -53 62 -162 157 -234 203 -147 94
-227 229 -159 273 12 8 29 14 37 12 61 -13 81 -20 86 -27 3 -5 13 -9 23 -9 9
0 26 -8 37 -17 10 -10 30 -24 45 -31 14 -7 39 -26 57 -43 17 -16 36 -29 41
-29 11 0 15 -15 11 -35 -1 -5 2 -7 5 -3 9 9 74 -62 75 -80 0 -7 5 -10 12 -6 8
5 9 0 6 -14 -4 -12 -2 -20 3 -17 8 6 59 -66 59 -84 0 -5 5 -11 10 -13 6 -2 12
-13 13 -25 0 -12 4 -20 8 -17 4 2 10 -6 14 -19 4 -12 9 -29 12 -37 3 -8 6 -25
7 -37 0 -11 4 -19 7 -17 8 4 19 -61 24 -141 2 -33 5 -62 6 -65 1 -3 1 -8 1
-11 -2 -15 28 -3 34 13 3 10 10 16 15 12 5 -3 8 -2 7 3 -6 16 42 84 54 77 6
-4 8 -3 5 3 -3 5 3 28 14 50 35 71 44 191 22 287 -12 53 -119 272 -164 337
-10 14 -15 29 -11 33 4 4 2 6 -3 4 -15 -4 -65 43 -58 55 3 6 1 7 -5 3 -6 -3
-16 0 -24 7 -27 26 -115 85 -175 117 -34 19 -59 38 -56 44 3 5 1 6 -5 2 -7 -4
-20 -2 -29 3 -13 8 3 10 62 8 59 -2 79 -6 77 -15 -1 -8 2 -11 8 -7 11 7 82
-54 75 -66 -3 -4 0 -11 6 -15 8 -4 9 -3 5 4 -15 24 14 11 31 -14 10 -14 30
-38 44 -52 47 -48 119 -154 112 -165 -3 -5 -2 -7 4 -4 14 9 76 -80 67 -95 -4
-7 -3 -8 4 -4 14 8 74 -72 65 -87 -3 -6 -1 -7 5 -3 7 4 12 3 12 -2 0 -5 9 -12
20 -15 17 -4 19 -1 15 21 -10 48 -15 182 -7 182 4 0 7 17 6 39 0 21 5 61 12
87 7 27 11 87 10 133 -2 76 0 86 20 105 13 12 27 32 32 46 13 35 7 104 -11
130 -11 16 -13 29 -7 45 5 13 6 26 3 29 -4 3 -1 6 6 6 8 0 9 6 3 18 -4 9 -8
28 -7 42 1 14 -2 30 -6 35 -3 6 -9 33 -12 60 -9 90 -65 209 -126 270 -43 43
-48 47 -124 85 -58 29 -67 38 -62 55 4 11 7 26 7 33 1 7 8 10 15 7 8 -3 17 -5
19 -5 3 0 2 -5 -2 -12 -4 -6 -3 -8 4 -4 11 6 84 -23 90 -37 2 -4 8 -5 13 -2 9
6 -20 91 -66 191 -15 32 -36 84 -47 114 -53 147 -104 207 -194 225 -79 16
-107 19 -199 18 -116 -1 -106 1 -295 -46 -80 -20 -163 -38 -184 -41 -57 -6
-109 17 -124 57 -8 21 -9 33 -2 35 6 2 8 8 4 13 -5 8 10 13 29 10 5 -1 6 3 3
8 -8 12 12 26 59 41 64 21 97 22 119 3 20 -17 20 -17 7 0 -7 9 -12 17 -10 18
2 1 19 2 38 4 22 2 29 0 20 -6 -9 -6 -10 -9 -2 -9 6 0 15 5 19 11 4 8 9 7 15
-2 5 -8 9 -9 9 -4 0 6 18 10 39 10 22 0 37 -3 35 -7 -3 -5 -1 -8 5 -8 5 0 12
6 14 13 4 8 8 9 14 1 4 -5 30 -10 56 -9 27 1 58 -4 70 -10 12 -6 35 -12 51
-13 17 -1 33 -7 37 -13 4 -8 8 -7 12 2 4 9 8 10 14 4 9 -11 48 -13 58 -3 9 9
-19 52 -84 128 -105 123 -212 209 -338 271 -67 34 -91 41 -140 41 -62 0 -115
-17 -149 -50 -21 -20 -31 -43 -55 -122 -17 -55 -85 -127 -125 -132 -61 -8
-117 24 -140 79 -18 42 -18 68 1 86 8 8 11 17 8 21 -3 3 5 14 18 25 27 23 44
27 33 9 -4 -7 -3 -8 5 -4 6 4 9 11 6 16 -8 12 23 33 40 26 9 -3 13 -2 10 3 -9
16 12 22 88 28 40 3 73 6 74 7 6 5 -124 91 -182 120 -86 43 -155 55 -310 53
-105 -2 -126 -5 -170 -27 -57 -27 -109 -78 -123 -119 -23 -65 8 -207 72 -328
24 -45 30 -65 22 -73 -8 -8 -7 -10 4 -5 10 3 23 -9 40 -42 14 -26 34 -61 45
-78 29 -43 46 -85 35 -85 -5 0 -17 16 -26 35 -9 19 -20 35 -25 35 -5 0 -9 5
-9 10 0 6 -12 23 -26 39 -34 38 -65 97 -56 107 4 4 2 4 -4 1 -6 -3 -24 12 -40
34 -16 22 -42 55 -59 72 -16 18 -50 57 -75 87 -131 160 -405 397 -525 455
-102 50 -114 51 -153 14z m401 -658 c-3 -12 -1 -11 11 3 16 20 16 20 17 0 0
-10 3 -13 6 -6 2 6 11 12 19 12 9 0 12 -4 9 -10 -3 -5 0 -10 8 -10 20 0 31
-31 16 -44 -9 -8 -10 -7 -4 3 6 10 4 12 -6 5 -14 -8 -207 -15 -222 -7 -13 7
12 40 42 55 16 8 48 14 70 15 32 1 39 -2 34 -16z m752 -22 c-4 -5 -2 -9 3 -9
5 0 6 -17 2 -41 -7 -38 -37 -79 -59 -79 -13 0 -6 87 9 105 7 8 9 15 4 15 -5 0
0 7 10 15 20 15 41 11 31 -6z m125 -193 c0 -8 4 -17 9 -20 5 -4 7 4 4 16 -4
22 -4 22 9 3 7 -11 13 -22 13 -25 0 -3 4 -11 8 -17 5 -7 5 -18 1 -25 -4 -6 -3
-8 3 -5 15 10 22 -40 9 -59 -7 -8 -32 -18 -56 -21 -25 -3 -50 -10 -57 -15 -19
-15 -32 0 -26 33 6 39 48 130 57 122 3 -3 6 1 6 10 0 10 5 17 10 17 6 0 10 -6
10 -14z m603 -229 c-3 -6 -1 -7 6 -3 8 5 9 12 2 20 -8 9 -1 12 29 12 22 0 40
-5 40 -11 0 -5 5 -3 10 5 9 13 10 13 10 0 0 -13 1 -13 10 0 7 12 10 12 10 1 0
-8 6 -11 16 -7 9 4 24 1 32 -6 13 -11 14 -11 8 0 -6 10 2 11 36 6 24 -4 46
-11 49 -16 3 -5 10 -8 15 -6 14 4 84 -24 84 -34 0 -4 3 -7 8 -7 19 3 33 -2 27
-11 -3 -5 0 -8 7 -5 7 2 36 -6 63 -20 38 -17 44 -23 25 -22 -14 0 -31 5 -39
11 -11 8 -13 8 -8 -1 5 -8 0 -11 -13 -10 -11 1 -20 6 -20 12 0 5 -4 4 -9 -3
-4 -7 -12 -12 -17 -11 -5 1 -21 1 -36 0 -36 -1 -39 -31 -3 -31 35 0 22 -25
-14 -28 -20 -1 -38 7 -60 27 -54 51 -180 52 -250 2 -20 -14 -37 -18 -71 -14
-53 6 -70 18 -70 46 0 20 0 20 14 2 8 -11 12 -23 10 -26 -4 -7 28 -2 56 8 8 4
18 5 23 5 11 -3 8 86 -3 93 -6 4 -8 10 -5 14 2 5 -7 6 -22 3 -20 -4 -24 -2
-18 9 8 12 6 12 -8 0 -9 -7 -17 -10 -17 -6 0 4 -7 2 -15 -5 -8 -6 -20 -8 -27
-4 -7 4 -10 4 -6 -1 4 -4 3 -14 -3 -21 -5 -7 -12 -25 -15 -40 -7 -41 -13 -42
-40 -11 -22 26 -23 29 -8 52 9 13 23 26 32 29 29 9 75 17 110 20 18 2 36 6 39
10 9 9 34 -15 26 -27z m-103 -61 c0 -3 -4 -8 -10 -11 -5 -3 -10 -1 -10 4 0 6
5 11 10 11 6 0 10 -2 10 -4z m640 -50 c0 -2 -7 -9 -15 -16 -13 -11 -14 -10 -9
4 5 14 24 23 24 12z m-385 -37 c-4 -5 -13 -9 -22 -9 -13 0 -13 3 -3 15 13 15
35 11 25 -6z m425 -3 c0 -3 -4 -8 -10 -11 -5 -3 -10 -1 -10 4 0 6 5 11 10 11
6 0 10 -2 10 -4z m-34 -32 c-4 -9 -9 -15 -11 -12 -3 3 -3 13 1 22 4 9 9 15 11
12 3 -3 3 -13 -1 -22z m-2156 5 c0 6 14 11 30 11 l30 0 0 -65 0 -65 -57 -26
c-32 -15 -61 -28 -65 -31 -5 -2 -8 34 -8 82 0 80 2 86 23 94 13 5 27 5 35 -1
8 -7 12 -7 12 1z m1777 -54 c0 -9 -10 -15 -24 -15 -12 0 -23 5 -23 11 0 6 7 8
16 5 8 -3 12 -2 9 4 -3 6 0 10 8 10 7 0 14 -7 14 -15z m177 9 c12 -5 16 -20
16 -59 l0 -53 -70 22 c-38 11 -70 23 -70 26 0 3 13 6 30 6 16 1 27 -2 24 -7
-3 -5 6 -4 20 3 19 8 26 19 26 40 0 30 1 31 24 22z m227 -59 c8 -2 37 -13 65
-25 27 -12 63 -29 81 -36 18 -8 36 -20 40 -28 4 -7 16 -16 27 -19 11 -5 16
-13 12 -23 -3 -8 -2 -13 3 -10 10 7 38 -32 43 -60 2 -10 7 -22 11 -25 13 -9
18 -77 7 -84 -14 -9 -59 19 -120 74 -33 30 -88 66 -137 88 -56 26 -83 44 -84
56 -1 21 -1 95 0 103 1 3 9 3 19 -1 9 -4 24 -8 33 -10z m-2559 -102 c-6 -2
-10 -9 -7 -13 5 -9 -32 -40 -47 -40 -5 0 -3 9 4 19 7 11 15 18 19 15 4 -2 9 3
13 11 3 8 11 15 18 14 10 0 10 -2 0 -6z m2026 -73 c2 -5 8 -8 13 -4 5 3 9 1 9
-4 0 -6 10 -8 22 -4 16 4 19 2 13 -9 -8 -12 -6 -12 8 0 12 9 17 10 17 2 0 -7
4 -10 9 -6 6 3 15 -3 21 -12 10 -15 11 -15 6 -1 -7 25 5 30 31 13 13 -9 23
-13 23 -9 0 4 6 2 13 -4 6 -5 27 -13 45 -17 18 -4 42 -17 54 -28 11 -12 18
-16 14 -9 -8 13 69 -12 88 -30 6 -4 18 -8 29 -8 11 0 15 -4 11 -12 -5 -7 -2
-9 8 -5 12 4 14 1 11 -13 -5 -19 -43 -17 -43 3 0 6 -3 7 -7 4 -3 -4 -17 0 -31
9 -15 10 -21 11 -17 3 5 -8 4 -10 -3 -5 -17 10 -86 22 -244 40 -18 2 -61 11
-95 21 -54 15 -62 20 -59 39 2 11 -1 31 -5 44 -8 22 -7 23 23 18 18 -3 34 -10
36 -16z m626 -239 c4 -5 -1 -8 -9 -7 -21 3 -31 16 -12 16 9 0 18 -4 21 -9z
m56 -53 c0 -4 3 -7 8 -7 22 4 30 -3 25 -22 -4 -16 -8 -17 -14 -7 -5 7 -9 9 -9
5 0 -5 -12 0 -27 11 -16 10 -35 22 -43 25 -8 3 2 5 23 4 20 0 37 -4 37 -9z
m-680 -78 c11 -7 11 -10 2 -10 -8 0 -10 -6 -5 -17 5 -10 7 -27 7 -38 -1 -11
-2 -30 -3 -43 l-1 -24 -28 24 c-29 23 -52 61 -52 85 0 8 10 18 23 23 29 12 39
12 57 0z m-1844 -77 c-3 -7 0 -13 7 -14 9 0 9 -2 0 -6 -7 -2 -13 -10 -13 -17
0 -7 -11 -39 -24 -72 -14 -33 -26 -75 -28 -94 -6 -46 -35 -47 -60 -4 -25 44
-31 98 -14 139 15 34 48 60 61 47 3 -4 5 -1 3 7 -1 7 5 15 15 16 11 2 21 5 23
8 10 10 34 2 30 -10z m2039 -9 c22 -14 25 -24 25 -71 0 -46 -3 -54 -16 -49 -9
3 -22 6 -30 6 -11 0 -14 16 -14 65 0 36 2 65 5 65 3 0 17 -7 30 -16z m-1235
-199 c-11 -21 -25 -42 -32 -47 -11 -6 -11 -8 0 -8 9 0 6 -12 -8 -40 -11 -22
-18 -40 -15 -40 3 0 -1 -10 -9 -22 -11 -19 -28 -72 -25 -80 0 -2 -4 -16 -10
-31 -6 -15 -13 -40 -16 -55 -6 -33 -10 -55 -23 -109 -5 -24 -8 -43 -6 -43 3 0
1 -8 -4 -17 -10 -18 -23 -97 -27 -163 -2 -19 -3 -41 -4 -47 -1 -7 -8 -13 -16
-13 -17 0 -27 31 -27 92 -1 85 1 99 15 92 9 -5 9 -4 1 5 -11 12 -4 64 13 111
4 8 8 26 10 40 2 13 7 27 11 30 4 3 8 16 10 30 1 13 6 27 10 30 4 3 7 11 8 18
3 38 5 43 14 37 6 -3 7 1 4 10 -4 8 -1 21 5 29 6 7 8 16 4 19 -3 4 -1 7 6 7 7
0 9 5 6 10 -3 6 -1 10 5 10 6 0 9 4 5 9 -3 5 1 15 8 23 8 7 19 25 26 38 17 34
75 120 78 116 2 -1 -6 -20 -17 -41z m1455 -886 c44 -45 43 -128 -2 -129 -12 0
-45 98 -37 112 3 4 0 8 -7 8 -8 0 -9 3 0 13 6 8 8 17 4 20 -3 4 -2 7 3 7 5 0
22 -14 39 -31z"/>
<path d="M1160 3290 c-9 -6 -10 -10 -3 -10 6 0 15 5 18 10 8 12 4 12 -15 0z"/>
<path d="M2987 2309 c7 -7 15 -10 18 -7 3 3 -2 9 -12 12 -14 6 -15 5 -6 -5z"/>
<path d="M2930 1909 c0 -5 5 -7 10 -4 6 3 10 8 10 11 0 2 -4 4 -10 4 -5 0 -10
-5 -10 -11z"/>
<path d="M3156 832 c-3 -5 1 -9 9 -9 8 0 12 4 9 9 -3 4 -7 8 -9 8 -2 0 -6 -4
-9 -8z"/>
<path d="M2255 3610 c3 -5 8 -10 11 -10 2 0 4 5 4 10 0 6 -5 10 -11 10 -5 0
-7 -4 -4 -10z"/>
<path d="M2573 3225 c0 -8 4 -12 9 -9 5 3 6 10 3 15 -9 13 -12 11 -12 -6z"/>
<path d="M880 1550 c-9 -6 -10 -10 -3 -10 6 0 15 5 18 10 8 12 4 12 -15 0z"/>
<path d="M2846 1468 c3 -5 10 -6 15 -3 13 9 11 12 -6 12 -8 0 -12 -4 -9 -9z"/>
<path d="M2116 332 c-3 -5 1 -9 9 -9 8 0 12 4 9 9 -3 4 -7 8 -9 8 -2 0 -6 -4
-9 -8z"/>
<path d="M2590 136 c0 -2 7 -7 16 -10 8 -3 12 -2 9 4 -6 10 -25 14 -25 6z"/>
</g>
</svg>
